<?xml version="1.0" encoding="UTF-8" standalone="no"?>
<!-- Created with Inkscape (http://www.inkscape.org/) -->

<svg
   xmlns:osb="http://www.openswatchbook.org/uri/2009/osb"
   xmlns:dc="http://purl.org/dc/elements/1.1/"
   xmlns:cc="http://creativecommons.org/ns#"
   xmlns:rdf="http://www.w3.org/1999/02/22-rdf-syntax-ns#"
   xmlns:svg="http://www.w3.org/2000/svg"
   xmlns="http://www.w3.org/2000/svg"
   xmlns:xlink="http://www.w3.org/1999/xlink"
   xmlns:sodipodi="http://sodipodi.sourceforge.net/DTD/sodipodi-0.dtd"
   xmlns:inkscape="http://www.inkscape.org/namespaces/inkscape"
   version="1.1"
   id="svg2"
   width="7.0250931in"
   height="6.1547275in"
   viewBox="0 0 674.40893 590.85382"
   sodipodi:docname="peixe.svg"
   inkscape:version="0.92.3 (2405546, 2018-03-11)">
  <metadata
     id="metadata8">
    <rdf:RDF>
      <cc:Work
         rdf:about="">
        <dc:format>image/svg+xml</dc:format>
        <dc:type
           rdf:resource="http://purl.org/dc/dcmitype/StillImage" />
        <dc:title></dc:title>
      </cc:Work>
    </rdf:RDF>
  </metadata>
  <defs
     id="defs6">
    <linearGradient
       id="linearGradient863"
       osb:paint="solid">
      <stop
         style="stop-color:#000000;stop-opacity:1;"
         offset="0"
         id="stop861" />
    </linearGradient>
    <linearGradient
       id="linearGradient853"
       osb:paint="solid">
      <stop
         style="stop-color:#000000;stop-opacity:1;"
         offset="0"
         id="stop851" />
    </linearGradient>
    <clipPath
       clipPathUnits="userSpaceOnUse"
       id="clipPath830">
      <rect
         style="opacity:1;vector-effect:none;fill:#000000;fill-opacity:1;fill-rule:evenodd;stroke-width:0.99999994;stroke-linecap:butt;stroke-linejoin:miter;stroke-miterlimit:4;stroke-dasharray:none;stroke-dashoffset:0;stroke-opacity:1;paint-order:stroke markers fill"
         id="rect832"
         width="530.65375"
         height="505.48248"
         x="94.719353"
         y="121.45535" />
    </clipPath>
    <linearGradient
       inkscape:collect="always"
       xlink:href="#linearGradient863"
       id="linearGradient865"
       x1="36.137802"
       y1="235.95184"
       x2="530.83722"
       y2="235.95184"
       gradientUnits="userSpaceOnUse"
       gradientTransform="translate(63.832858,3.5539768)" />
  </defs>
  <sodipodi:namedview
     pagecolor="#ffffff"
     bordercolor="#666666"
     borderopacity="1"
     objecttolerance="10"
     gridtolerance="10"
     guidetolerance="10"
     inkscape:pageopacity="0"
     inkscape:pageshadow="2"
     inkscape:window-width="1918"
     inkscape:window-height="1039"
     id="namedview4"
     showgrid="true"
     inkscape:snap-midpoints="true"
     inkscape:snap-grids="true"
     inkscape:zoom="0.37699681"
     inkscape:cx="-785.25496"
     inkscape:cy="535.33035"
     inkscape:window-x="0"
     inkscape:window-y="20"
     inkscape:window-maximized="0"
     inkscape:current-layer="svg2"
     inkscape:snap-page="false"
     showborder="true"
     borderlayer="true"
     inkscape:showpageshadow="true"
     units="in"
     fit-margin-top="0"
     fit-margin-left="0"
     fit-margin-right="0"
     fit-margin-bottom="0">
    <sodipodi:guide
       position="-376.66101,774.54238"
       orientation="0,625"
       id="guide4644"
       inkscape:locked="false" />
    <sodipodi:guide
       position="692.97668,901.75212"
       orientation="-626,0"
       id="guide4646"
       inkscape:locked="false" />
    <sodipodi:guide
       position="183.02541,901.75212"
       orientation="0,-625"
       id="guide4648"
       inkscape:locked="false" />
    <sodipodi:guide
       position="-514.59321,474.80509"
       orientation="626,0"
       id="guide4650"
       inkscape:locked="false" />
  </sodipodi:namedview>
  <rect
     style="opacity:1;vector-effect:none;fill:#000000;fill-opacity:1;fill-rule:evenodd;stroke-width:1.32371724;stroke-linecap:butt;stroke-linejoin:miter;stroke-miterlimit:4;stroke-dasharray:none;stroke-dashoffset:0;stroke-opacity:1;paint-order:fill markers stroke"
     id="rect885"
     width="674.40894"
     height="590.85382"
     x="0"
     y="0" />
  <path
     style="fill:#ffffff;stroke:url(#linearGradient865);stroke-width:1px;stroke-linecap:butt;stroke-linejoin:miter;stroke-opacity:1"
     d="m 594.05015,128.76058 -21.4525,-5.04076 -16.7635,-1.40672 -5.2752,0.23445 -6.4474,0.11723 -4.8064,0.35168 c 0,0 -2.4617,-0.11723 -3.8684,0 -1.4068,0.11723 -1.1723,0 -3.6341,0.23445 -2.4617,0.23446 -4.9235,0.35168 -7.0336,0.46891 -2.1101,0.11723 -26.8449,4.3374 -26.8449,4.3374 l -24.1488,6.91639 -22.5076,8.08865 -18.4046,7.73698 -14.7706,7.97143 -15.005,8.90925 -15.2395,9.37816 -14.0673,9.61261 -9.847,7.03362 -10.7849,8.44033 -12.1916,9.37816 -7.5025,5.62689 -1.9928,1.40672 0.3516,3.98572 -0.1172,5.62689 -0.1172,3.39958 -0.93782,3.0479 -1.75841,3.28235 -2.69622,3.16513 -3.0479,3.16513 -3.75126,2.22731 -4.92353,1.64118 -7.74412,0.35168 -3.74412,-1.05505 -3.0479,-1.17227 -10.08151,9.37816 -16.17732,15.70841 -13.83277,12.42605 -20.86639,19.69412 -20.16303,19.22522 -13.59833,13.12941 -12.1916,11.72269 -11.25378,10.55043 -5.19723,4.9332 -5.1393,3.64725 -6.79714,3.81303 -7.79184,2.48676 -7.46028,0.9947 H 142.746 l -7.62606,-0.9947 -7.79185,-3.1499 -6.63135,-3.81303 -6.13401,-5.1393 -5.1393,-5.1393 -4.47616,-7.79184 -2.81833,-6.96293 -1.49205,-7.62606 -0.16579,-8.78654 0.66314,-7.12871 1.98941,-6.79714 3.14989,-6.63136 5.15345,-7.10659 4.92353,-5.39243 6.79916,-4.45463 7.03362,-3.75126 11.95714,-3.98571 10.78488,-3.98572 12.89496,-4.22017 11.25378,-3.51681 6.0958,-1.87563 -1.54754,3.8059 -28.51483,35.31197 -13.67717,17.4902 -1.24338,1.16049 -2.15519,-19.23093 -6.05111,1.74073 -4.31038,4.47617 -3.97882,6.134 -1.9894,6.79714 v 6.46557 l 1.49205,6.96293 4.1446,6.46557 5.30508,5.47087 5.96822,3.14989 4.64195,1.32627 9.11812,0.33157 8.62076,-2.15519 7.12871,-5.96822 119.73911,-112.79292 0.64475,-0.99643 -1.52395,-5.50966 0.23446,-5.97858 3.17125,-7.76399 4.1446,-4.72484 5.22219,-4.22749 7.04582,-1.40916 5.80243,0.0829 6.05112,1.49205 1.90651,-0.0829 2.32098,-0.74603 16.82705,-13.84295 16.91,-12.26801 24.2044,-16.5784 16.5784,-10.2786 20.2256,-10.94174 16.8852,-7.62747 17.1005,-7.1273 17.7159,-6.58824 18.7563,-4.92354 15.474,-3.5168 13.5983,-2.34454 11.7227,-0.70336 11.2538,-0.93782 10.0815,0.23446 15.474,0.23445 12.1915,1.17227 18.2874,3.51681 z"
     id="path834"
     inkscape:connector-curvature="0" />
  <g
     id="g4621"
     style="stroke-width:1;stroke-miterlimit:4;stroke-dasharray:none"
     transform="translate(-633.36985,29.677417)">
    <path
       sodipodi:nodetypes="ccccccccccccccccccccccccccccccccccccccccccccccccccccccccccccccccccc"
       inkscape:label="path845"
       inkscape:connector-curvature="0"
       id="path845"
       d="m 1227.42,187.08316 -34.0092,0.93782 -20.723,0.82892 -24.2044,1.9894 -23.044,2.32098 -20.5572,2.98411 -19.3967,3.48146 -20.8888,3.97881 -24.8676,6.29979 -20.0598,5.96822 -21.3861,7.29449 -19.89411,8.12341 -19.06515,8.45498 -18.40201,9.2839 -15.91526,9.11812 -11.93644,7.29449 -11.2733,8.12341 -4.31038,3.31568 -2.08306,1.85249 -0.64475,0.82059 -0.52752,1.2895 -0.17584,1.64118 0.11722,1.7584 0.99643,1.7584 3.16513,1.81702 54.52421,24.87174 30.17267,14.09163 4.1446,3.97881 1.32627,3.73014 -0.16579,2.65254 -0.66313,2.40387 -1.57495,2.23808 -1.32627,1.40917 -6.71425,0.41446 -91.67849,0.24867 -2.81833,0.66314 -1.24338,1.82362 v 2.15519 l 2.48676,2.23808 8.70365,6.46558 10.77596,7.54316 7.04581,4.89063 6.05111,3.89592 6.54847,4.1446 7.29449,4.22749 7.12871,4.14459 7.87473,3.81303 6.54847,3.73014 6.79714,2.90122 8.2063,3.89592 11.93644,5.63665 9.20101,3.64725 9.94703,3.39857 9.5326,3.56435 10.3615,3.39857 8.0405,2.48676 14.4944,3.91726 8.0886,2.46177 12.5433,3.16512 14.3017,3.0479 9.3782,2.11009 13.7155,2.22731 15.1223,2.34454 14.3017,1.7584 20.8664,0.82059 77.4271,0.53787 z"
       style="fill:#ffffff;stroke:#000000;stroke-width:1;stroke-linecap:butt;stroke-linejoin:miter;stroke-miterlimit:4;stroke-dasharray:none;stroke-opacity:1" />
    <ellipse
       ry="20.641949"
       rx="20.890623"
       cy="280.52838"
       cx="1024.5599"
       id="path847"
       style="opacity:1;fill:#000000;fill-opacity:1;fill-rule:evenodd;stroke:#000000;stroke-width:1;stroke-linecap:butt;stroke-linejoin:round;stroke-miterlimit:4;stroke-dasharray:none;stroke-opacity:1;paint-order:stroke markers fill" />
  </g>
</svg>
